<?xml version="1.0" encoding="utf-8"?>
<!-- Generator: Adobe Illustrator 16.0.0, SVG Export Plug-In . SVG Version: 6.00 Build 0)  -->
<!DOCTYPE svg PUBLIC "-//W3C//DTD SVG 1.1//EN" "http://www.w3.org/Graphics/SVG/1.1/DTD/svg11.dtd">
<svg version="1.1" id="Layer_2" xmlns="http://www.w3.org/2000/svg" xmlns:xlink="http://www.w3.org/1999/xlink" x="0px" y="0px"
	 width="100px" height="100px" viewBox="0 0 100 100" enable-background="new 0 0 100 100" xml:space="preserve">
<path fill="#FFFFFF" d="M74.027,1.958l-12.465-0.02c-14.004,0-23.054,9.285-23.054,23.656v10.907H25.975
	c-1.083,0-1.96,0.878-1.96,1.961v15.804c0,1.082,0.878,1.959,1.96,1.959h12.533v39.877c0,1.082,0.877,1.959,1.96,1.959H56.82
	c1.082,0,1.959-0.877,1.959-1.959V56.225h14.654c1.084,0,1.961-0.877,1.961-1.959L75.4,38.462c0-0.52-0.207-1.018-0.574-1.386
	c-0.368-0.368-0.867-0.575-1.387-0.575H58.781v-9.246c0-4.444,1.059-6.7,6.847-6.7l8.397-0.003c1.082,0,1.959-0.878,1.959-1.96
	V3.918C75.984,2.837,75.109,1.96,74.027,1.958z"/>
</svg>
