<?xml version="1.0" encoding="utf-8"?>
<!-- Generator: Adobe Illustrator 16.0.0, SVG Export Plug-In . SVG Version: 6.00 Build 0)  -->
<!DOCTYPE svg PUBLIC "-//W3C//DTD SVG 1.1//EN" "http://www.w3.org/Graphics/SVG/1.1/DTD/svg11.dtd">
<svg version="1.1" id="Capa_1" xmlns="http://www.w3.org/2000/svg" xmlns:xlink="http://www.w3.org/1999/xlink" x="0px" y="0px"
	 width="89.609px" height="88px" viewBox="0 0 89.609 88" enable-background="new 0 0 89.609 88" xml:space="preserve">
<path fill="#FFFFFF" d="M4.754,21.943c0,7.468,2.494,12.859,7.412,16.027c4.025,2.594,8.701,2.981,11.129,2.981
	c0.59,0,1.063-0.022,1.394-0.044c0,0-0.771,5.016,2.949,9.981l-0.168-0.003C21.023,50.889,0,52.234,0,69.518
	c0,17.584,19.31,18.478,23.183,18.478c0.303,0,0.479-0.006,0.479-0.006c0.043,0,0.32,0.011,0.791,0.011
	c2.486,0,8.912-0.313,14.879-3.213C47.072,81.029,51,74.494,51,65.361c0-8.824-5.981-14.076-10.35-17.916
	c-2.666-2.338-4.969-4.357-4.969-6.321c0-2.001,1.682-3.505,3.809-5.41c3.445-3.081,6.691-7.466,6.691-15.755
	c0-7.287-0.945-12.178-6.767-15.281c0.607-0.311,2.752-0.537,3.814-0.684C46.385,3.563,51,3.074,51,0.498V0H28.006
	C27.775,0.006,4.754,0.859,4.754,21.943z M41.871,67.007c0.439,7.033-5.576,12.222-14.606,12.879
	c-9.175,0.671-16.728-3.46-17.166-10.483c-0.214-3.373,1.271-6.684,4.176-9.315c2.947-2.669,6.992-4.313,11.393-4.639
	c0.521-0.033,1.035-0.054,1.549-0.054C35.705,55.395,41.455,60.384,41.871,67.007z M35.867,17.131
	c2.256,7.934-1.15,16.229-6.578,17.759c-0.623,0.175-1.27,0.265-1.922,0.265c-4.973,0-9.9-5.031-11.725-11.96
	c-1.021-3.894-0.938-7.296,0.231-10.568c1.15-3.219,3.215-5.393,5.814-6.124c0.625-0.177,1.272-0.267,1.924-0.267
	C29.617,6.235,33.477,8.725,35.867,17.131z M74.609,34.41v-15h-9.5v15h-15v9.5h15v15h9.5v-15h15v-9.5H74.609z"/>
</svg>
